<svg width="18" height="17" viewBox="0 0 18 17" fill="none" xmlns="http://www.w3.org/2000/svg">
<path d="M10.6667 4V2.33333H7.33332V4H10.6667ZM2.33332 5.66666V14.8333H15.6667V5.66666H2.33332ZM15.6667 4C16.5917 4 17.3333 4.74166 17.3333 5.66666V14.8333C17.3333 15.7583 16.5917 16.5 15.6667 16.5H2.33332C1.40832 16.5 0.666656 15.7583 0.666656 14.8333L0.67499 5.66666C0.67499 4.74166 1.40832 4 2.33332 4H5.66666V2.33333C5.66666 1.40833 6.40832 0.666664 7.33332 0.666664H10.6667C11.5917 0.666664 12.3333 1.40833 12.3333 2.33333V4H15.6667Z" fill="#383838"/>
</svg>
